<svg width="24" height="24" viewBox="0 0 24 24" fill="none" xmlns="http://www.w3.org/2000/svg">
<path opacity="0.8" d="M13.9199 2.40009V3.40009L13.9234 3.40008L13.9199 2.40009ZM14.2363 2.5163L14.8862 1.75629L14.8858 1.75592L14.2363 2.5163ZM14.4004 2.81024L15.3906 2.67014L15.3886 2.65736L14.4004 2.81024ZM14.7598 5.35028L13.7696 5.49037L13.8502 6.05986L14.383 6.27658L14.7598 5.35028ZM16.3799 6.28973L15.7748 7.08592L16.2263 7.42901L16.7525 7.21771L16.3799 6.28973ZM18.7705 5.32977L18.4369 4.38707L18.4172 4.39403L18.3979 4.40179L18.7705 5.32977ZM19.1055 5.3327L19.4553 4.39589L19.4549 4.39572L19.1055 5.3327ZM19.3604 5.55048L18.4906 6.04397L18.4947 6.05116L19.3604 5.55048ZM21.2803 8.86981L22.1612 8.39657L22.1538 8.38273L22.1459 8.36913L21.2803 8.86981ZM21.3291 9.19598L22.3103 9.38901L22.3105 9.38817L21.3291 9.19598ZM21.1602 9.48016L21.7743 10.2693L21.7854 10.2607L21.7962 10.2518L21.1602 9.48016ZM19.1299 11.0602L18.5157 10.2711L18.0456 10.637L18.1435 11.2246L19.1299 11.0602ZM19.2002 11.9997H20.2002V11.9997L19.2002 11.9997ZM19.1406 12.9401L18.1494 12.808L18.074 13.3736L18.5226 13.7263L19.1406 12.9401ZM21.1504 14.5202L20.5323 15.3063L20.5444 15.3158L20.5567 15.3249L21.1504 14.5202ZM21.2705 15.1296L22.1362 15.6302L22.1427 15.619L22.1488 15.6077L21.2705 15.1296ZM19.3506 18.4499L18.4849 17.9493L18.4787 17.9601L18.4727 17.971L19.3506 18.4499ZM18.7598 18.6696L18.387 19.5975L18.4024 19.6037L18.418 19.6094L18.7598 18.6696ZM16.3701 17.7097L16.7429 16.7817L16.2106 16.5679L15.7573 16.9194L16.3701 17.7097ZM14.75 18.6501L14.3732 17.7238L13.8404 17.9405L13.7599 18.51L14.75 18.6501ZM14.3906 21.1901L13.4005 21.05L13.3994 21.058L13.3984 21.0659L14.3906 21.1901ZM10.0801 21.6003L10.0798 22.6003H10.0801V21.6003ZM9.60059 21.1901L8.6105 21.3306L8.61505 21.3627L8.62168 21.3944L9.60059 21.1901ZM9.24023 18.6501L10.2303 18.5096L10.1496 17.9404L9.61703 17.7238L9.24023 18.6501ZM7.62012 17.7097L8.2252 16.9135L7.77364 16.5703L7.24735 16.7817L7.62012 17.7097ZM5.23047 18.6696L5.53367 19.6225L5.56891 19.6113L5.60323 19.5975L5.23047 18.6696ZM4.64062 18.4499L5.51841 17.9708L5.51245 17.9599L5.50621 17.9491L4.64062 18.4499ZM2.71973 15.1296L1.83822 15.6018L1.84595 15.6162L1.85414 15.6303L2.71973 15.1296ZM2.6709 14.8034L1.68973 14.6102L1.6897 14.6104L2.6709 14.8034ZM2.83984 14.5202L2.22567 13.731L2.21428 13.7399L2.20315 13.7491L2.83984 14.5202ZM4.87012 12.9401L5.48429 13.7293L5.95445 13.3634L5.85651 12.7757L4.87012 12.9401ZM4.7998 11.9997L3.7998 11.9996V11.9997H4.7998ZM4.89062 11.0602L5.87702 11.2246L5.97495 10.637L5.5048 10.2711L4.89062 11.0602ZM2.86035 9.48016L3.47453 8.691L3.45455 8.67545L3.43381 8.66093L2.86035 9.48016ZM2.74023 8.86981L1.8735 8.37104L1.87199 8.37367L2.74023 8.86981ZM4.65039 5.55048L5.51712 6.04925L5.52282 6.03935L5.52829 6.02933L4.65039 5.55048ZM5.24023 5.32977L5.613 4.40185L5.59754 4.39564L5.58189 4.38995L5.24023 5.32977ZM7.62988 6.28973L7.25712 7.21766L7.7815 7.42831L8.23249 7.08778L7.62988 6.28973ZM9.25 5.35028L9.62684 6.27656L10.1593 6.05992L10.2401 5.49074L9.25 5.35028ZM9.61035 2.81024L8.62396 2.64584L8.62197 2.65779L8.62027 2.66978L9.61035 2.81024ZM10.0801 2.40009V1.40009L10.0798 1.40009L10.0801 2.40009ZM12 9.99969L12.0001 8.99969H12V9.99969ZM10 11.9997L9 11.9995V11.9997H10ZM12 13.9997V14.9997H12.0001L12 13.9997ZM14 11.9997H15V11.9995L14 11.9997ZM13.9199 2.40009L13.9234 3.40008C13.7993 3.40051 13.6803 3.35649 13.5868 3.27667L14.2363 2.5163L14.8858 1.75592C14.6162 1.52564 14.2722 1.39885 13.9164 1.40009L13.9199 2.40009ZM14.2363 2.5163L13.5864 3.2763C13.4937 3.19702 13.4312 3.08645 13.4121 2.96313L14.4004 2.81024L15.3886 2.65736C15.3342 2.30527 15.1549 1.98601 14.8862 1.75629L14.2363 2.5163ZM14.4004 2.81024L13.4103 2.95033L13.7696 5.49037L14.7598 5.35028L15.7499 5.21019L15.3905 2.67015L14.4004 2.81024ZM14.7598 5.35028L14.383 6.27658C14.8775 6.47776 15.332 6.7494 15.7748 7.08592L16.3799 6.28973L16.9849 5.49354C16.428 5.07029 15.8217 4.7027 15.1366 4.42399L14.7598 5.35028ZM16.3799 6.28973L16.7525 7.21771L19.1431 6.25775L18.7705 5.32977L18.3979 4.40179L16.0073 5.36175L16.3799 6.28973ZM18.7705 5.32977L19.1041 6.27247C18.9906 6.31267 18.8675 6.31124 18.7561 6.26968L19.1055 5.3327L19.4549 4.39572C19.1278 4.27379 18.7673 4.27012 18.4369 4.38707L18.7705 5.32977ZM19.1055 5.3327L18.7556 6.26951C18.6415 6.22689 18.5487 6.14631 18.4906 6.04395L19.3604 5.55048L20.2301 5.057C20.0585 4.75448 19.785 4.51902 19.4553 4.39589L19.1055 5.3327ZM19.3604 5.55048L18.4947 6.05116L20.4146 9.3705L21.2803 8.86981L22.1459 8.36913L20.226 5.04979L19.3604 5.55048ZM21.2803 8.86981L20.3993 9.34305C20.3424 9.23705 20.3256 9.11699 20.3477 9.0038L21.3291 9.19598L22.3105 9.38817C22.3761 9.05278 22.3253 8.70206 22.1612 8.39657L21.2803 8.86981ZM21.3291 9.19598L20.3479 9.00296C20.3701 8.89023 20.4307 8.78551 20.5241 8.7085L21.1602 9.48016L21.7962 10.2518C22.0646 10.0306 22.2444 9.72419 22.3103 9.38901L21.3291 9.19598ZM21.1602 9.48016L20.546 8.691L18.5157 10.2711L19.1299 11.0602L19.7441 11.8494L21.7743 10.2693L21.1602 9.48016ZM19.1299 11.0602L18.1435 11.2246C18.1822 11.4569 18.2002 11.7197 18.2002 11.9997L19.2002 11.9997L20.2002 11.9997C20.2002 11.64 20.1775 11.2633 20.1163 10.8959L19.1299 11.0602ZM19.2002 11.9997H18.2002C18.2002 12.2897 18.183 12.5558 18.1494 12.808L19.1406 12.9401L20.1319 13.0723C20.1782 12.7245 20.2002 12.3697 20.2002 11.9997H19.2002ZM19.1406 12.9401L18.5226 13.7263L20.5323 15.3063L21.1504 14.5202L21.7684 13.7341L19.7587 12.154L19.1406 12.9401ZM21.1504 14.5202L20.5567 15.3249C20.4506 15.2467 20.3726 15.1262 20.3455 14.9893C20.3188 14.8545 20.3467 14.735 20.3922 14.6515L21.2705 15.1296L22.1488 15.6077C22.4877 14.985 22.3677 14.1755 21.744 13.7155L21.1504 14.5202ZM21.2705 15.1296L20.4048 14.629L18.4849 17.9493L19.3506 18.4499L20.2163 18.9505L22.1362 15.6302L21.2705 15.1296ZM19.3506 18.4499L18.4727 17.971C18.6057 17.7273 18.8895 17.6527 19.1015 17.7298L18.7598 18.6696L18.418 19.6094C19.07 19.8465 19.8555 19.6125 20.2285 18.9287L19.3506 18.4499ZM18.7598 18.6696L19.1325 17.7417L16.7429 16.7817L16.3701 17.7097L15.9974 18.6376L18.387 19.5975L18.7598 18.6696ZM16.3701 17.7097L15.7573 16.9194C15.3336 17.248 14.8722 17.5208 14.3732 17.7238L14.75 18.6501L15.1268 19.5764C15.8078 19.2993 16.4266 18.9313 16.9829 18.4999L16.3701 17.7097ZM14.75 18.6501L13.7599 18.51L13.4005 21.05L14.3906 21.1901L15.3808 21.3302L15.7401 18.7902L14.75 18.6501ZM14.3906 21.1901L13.3984 21.0659C13.4332 20.7874 13.6741 20.6003 13.9199 20.6003V21.6003V22.6003C14.6457 22.6003 15.2879 22.0728 15.3829 21.3143L14.3906 21.1901ZM13.9199 21.6003V20.6003H10.0801V21.6003V22.6003H13.9199V21.6003ZM10.0801 21.6003L10.0803 20.6003C10.2056 20.6003 10.3297 20.6476 10.4244 20.7297C10.5159 20.809 10.5626 20.9047 10.5795 20.9858L9.60059 21.1901L8.62168 21.3944C8.75704 22.043 9.31276 22.6001 10.0798 22.6003L10.0801 21.6003ZM9.60059 21.1901L10.5907 21.0497L10.2303 18.5096L9.24023 18.6501L8.25015 18.7905L8.6105 21.3306L9.60059 21.1901ZM9.24023 18.6501L9.61703 17.7238C9.12307 17.5229 8.66888 17.2507 8.2252 16.9135L7.62012 17.7097L7.01503 18.5058C7.57136 18.9286 8.1774 19.2973 8.86344 19.5764L9.24023 18.6501ZM7.62012 17.7097L7.24735 16.7817L4.85771 17.7417L5.23047 18.6696L5.60323 19.5975L7.99288 18.6376L7.62012 17.7097ZM5.23047 18.6696L4.92727 17.7167C5.00939 17.6906 5.11305 17.6848 5.22403 17.7231C5.34394 17.7644 5.45368 17.8522 5.51841 17.9708L4.64062 18.4499L3.76284 18.9289C4.15205 19.6421 4.9414 19.811 5.53367 19.6225L5.23047 18.6696ZM4.64062 18.4499L5.50621 17.9491L3.58531 14.6288L2.71973 15.1296L1.85414 15.6303L3.77504 18.9507L4.64062 18.4499ZM2.71973 15.1296L3.60123 14.6574C3.657 14.7615 3.67476 14.8812 3.65209 14.9964L2.6709 14.8034L1.6897 14.6104C1.62335 14.9477 1.6756 15.2982 1.83822 15.6018L2.71973 15.1296ZM2.6709 14.8034L3.65206 14.9966C3.62915 15.113 3.56676 15.2168 3.47653 15.2913L2.83984 14.5202L2.20315 13.7491C1.93836 13.9677 1.75638 14.2717 1.68973 14.6102L2.6709 14.8034ZM2.83984 14.5202L3.45402 15.3094L5.48429 13.7293L4.87012 12.9401L4.25594 12.151L2.22567 13.731L2.83984 14.5202ZM4.87012 12.9401L5.85651 12.7757C5.8179 12.544 5.7998 12.2709 5.7998 11.9997H4.7998H3.7998C3.7998 12.3485 3.82234 12.7362 3.88372 13.1045L4.87012 12.9401ZM4.7998 11.9997L5.7998 11.9998C5.79982 11.7692 5.83097 11.501 5.87702 11.2246L4.89062 11.0602L3.90423 10.8959C3.85034 11.2192 3.79984 11.6104 3.7998 11.9996L4.7998 11.9997ZM4.89062 11.0602L5.5048 10.2711L3.47453 8.691L2.86035 9.48016L2.24617 10.2693L4.27645 11.8494L4.89062 11.0602ZM2.86035 9.48016L3.43381 8.66093C3.55648 8.7468 3.63794 8.87985 3.66378 9.02025C3.68841 9.15408 3.66026 9.27533 3.60848 9.36595L2.74023 8.86981L1.87199 8.37367C1.53073 8.97088 1.6078 9.82403 2.28689 10.2994L2.86035 9.48016ZM2.74023 8.86981L3.60697 9.36859L5.51712 6.04925L4.65039 5.55048L3.78366 5.0517L1.8735 8.37104L2.74023 8.86981ZM4.65039 5.55048L5.52829 6.02933C5.39758 6.26895 5.11517 6.34834 4.89858 6.2696L5.24023 5.32977L5.58189 4.38995C4.92532 4.15126 4.14318 4.39203 3.7725 5.07162L4.65039 5.55048ZM5.24023 5.32977L4.86747 6.2577L7.25712 7.21766L7.62988 6.28973L8.00265 5.36181L5.613 4.40185L5.24023 5.32977ZM7.62988 6.28973L8.23249 7.08778C8.66948 6.7578 9.13453 6.47685 9.62684 6.27656L9.25 5.35028L8.87316 4.424C8.18569 4.70369 7.57013 5.08179 7.02728 5.49169L7.62988 6.28973ZM9.25 5.35028L10.2401 5.49074L10.6004 2.9507L9.61035 2.81024L8.62027 2.66978L8.25991 5.20982L9.25 5.35028ZM9.61035 2.81024L10.5967 2.97464C10.5805 3.07206 10.5285 3.17999 10.4308 3.26596C10.3311 3.35368 10.2039 3.40005 10.0803 3.40009L10.0801 2.40009L10.0798 1.40009C9.31894 1.40028 8.73889 1.95626 8.62396 2.64584L9.61035 2.81024ZM10.0801 2.40009V3.40009H13.9199V2.40009V1.40009H10.0801V2.40009ZM12 9.99969V8.99969C10.3431 8.99969 9.00024 10.3431 9 11.9995L10 11.9997L11 11.9998C11.0001 11.4474 11.448 10.9997 12 10.9997V9.99969ZM10 11.9997H9C9 13.6565 10.3431 14.9997 12 14.9997V13.9997V12.9997C11.4477 12.9997 11 12.552 11 11.9997H10ZM12 13.9997L12.0001 14.9997C13.6566 14.9995 15 13.6566 15 11.9997H14H13C13 12.5518 12.5523 12.9996 11.9999 12.9997L12 13.9997ZM14 11.9997L15 11.9995C14.9998 10.3431 13.6567 8.99991 12.0001 8.99969L12 9.99969L11.9999 10.9997C12.552 10.9998 12.9999 11.4476 13 11.9998L14 11.9997Z" fill="#1D2636"/>
</svg>
