<svg width="32" height="32" viewBox="0 0 32 32" fill="none" xmlns="http://www.w3.org/2000/svg">
<path d="M15.3524 2.79111C15.7687 2.62529 16.2313 2.62529 16.6476 2.79111C17.9895 3.32549 18.2516 5.38333 19.8349 5.4979C20.9499 5.57856 22.044 4.64911 23.1628 4.92773C23.614 5.04012 24.0037 5.3278 24.248 5.72884C24.9963 6.95773 24.0305 8.76397 25.2511 9.78365C26.0991 10.4918 27.5001 10.4001 28.2373 11.2682C28.5477 11.6339 28.7003 12.1108 28.6604 12.5917C28.5424 14.0222 26.7185 14.9169 27.1193 16.4586C27.3967 17.5258 28.5671 18.2761 28.6604 19.4085C28.7003 19.8894 28.5477 20.3663 28.2373 20.7319C27.3109 21.8226 25.3077 21.4634 24.7301 22.9417C24.3245 23.9793 24.8453 25.2903 24.248 26.2713C24.0037 26.6723 23.614 26.9601 23.1628 27.0725C21.7736 27.4183 20.3636 25.9261 19.0268 26.7678C18.0724 27.3686 17.7304 28.7781 16.6476 29.209C16.2313 29.3749 15.7687 29.3749 15.3524 29.209C14.2696 28.7781 13.9276 27.3686 12.9732 26.7678C11.653 25.9366 10.2029 27.4125 8.83722 27.0725C8.38597 26.9601 7.99628 26.6723 7.75208 26.2713C7.00382 25.0425 7.9694 23.2361 6.74894 22.2165C5.9011 21.5083 4.49993 21.6001 3.76273 20.7319C3.45229 20.3663 3.2998 19.8894 3.33955 19.4085C3.43315 18.2761 4.60321 17.5258 4.88068 16.4586C5.27745 14.933 3.45607 14.0013 3.33955 12.5917C3.2998 12.1108 3.45229 11.6339 3.76273 11.2682C4.68903 10.1772 6.692 10.5368 7.26985 9.05852C7.67551 8.02088 7.15479 6.70977 7.75208 5.72884C7.99628 5.3278 8.38597 5.04012 8.83722 4.92773C9.95608 4.64911 11.0501 5.57857 12.1651 5.4979C13.7484 5.38336 14.0105 3.32549 15.3524 2.79111Z" fill="#73EFD5" stroke="#73EFD5" stroke-width="1.5" stroke-linejoin="round"/>
<path d="M12 17.7777C12 17.7777 13.1667 17.7777 14.3333 19.9999C14.3333 19.9999 18.0392 14.4443 21.3333 13.3333" stroke="#1F1F1F" stroke-width="2" stroke-linecap="round" stroke-linejoin="round"/>
</svg>
