<svg width="162" height="162" viewBox="0 0 162 162" fill="none" xmlns="http://www.w3.org/2000/svg">
<rect width="162" height="162" rx="37" fill="#CDFAFD"/>
<path d="M100.5 84.5H112.019C112.837 84.5 113.5 85.1633 113.5 85.9815V96.5185C113.5 97.3367 112.837 98 112.019 98H100C96.4101 98 93.5 95.0899 93.5 91.5C93.5 87.634 96.634 84.5 100.5 84.5Z" stroke="#169387" stroke-width="7" stroke-linecap="round"/>
<path d="M49 62V111C49 113.209 50.7909 115 53 115H106.5C108.709 115 110.5 113.209 110.5 111V99.5" stroke="#169387" stroke-width="7" stroke-linecap="round"/>
<path d="M101.5 54H55.5C51.9101 54 49 56.9101 49 60.5C49 64.0899 51.9101 67 55.5 67H105.5C108.261 67 110.5 69.2386 110.5 72V84" stroke="#169387" stroke-width="7" stroke-linecap="round"/>
<path d="M103 55V66.5" stroke="#169387" stroke-width="7" stroke-linecap="round"/>
</svg>
