<svg width="162" height="162" viewBox="0 0 162 162" fill="none" xmlns="http://www.w3.org/2000/svg">
<rect width="162" height="162" rx="24" fill="#DE1641"/>
<path d="M67.0002 79L76.3335 88.3333L95.0002 69.6667M53 106C53 106 53.0002 97.294 53.0002 92.0667V65.9333C53.0002 60.7062 53.0002 58.0926 54.0175 56.0961C54.9123 54.3399 56.3401 52.9121 58.0963 52.0173C60.0928 51 62.7064 51 67.9335 51H94.0668C99.2941 51 101.907 51 103.904 52.0173C105.66 52.9121 107.088 54.3399 107.983 56.0961C109 58.0926 109 60.7062 109 65.9333V92.0667C109 97.294 109 104.5 109 106.5C107.5 107 99.2941 107 94.0668 107H67.9335C62.7064 107 53 107.017 53 106ZM53 106C53 106.648 53 104.983 53 106Z" stroke="white" stroke-width="9" stroke-linecap="round" stroke-linejoin="round"/>
<line x1="41.5" y1="107.5" x2="120.5" y2="107.5" stroke="white" stroke-width="9" stroke-linecap="round"/>
</svg>
