<svg width="32" height="32" viewBox="0 0 32 32" fill="none" xmlns="http://www.w3.org/2000/svg">
<rect width="32" height="32" rx="6" fill="#D9B3FF"/>
<g opacity="0.7">
<path d="M18.5 23.5V19.3333C18.5 19.1123 18.4122 18.9004 18.2559 18.7441C18.0996 18.5878 17.8877 18.5 17.6667 18.5H14.3333C14.1123 18.5 13.9004 18.5878 13.7441 18.7441C13.5878 18.9004 13.5 19.1123 13.5 19.3333V23.5" stroke="black" stroke-width="2" stroke-linecap="round" stroke-linejoin="round"/>
<path d="M20.8118 14.5916C20.6381 14.4253 20.4069 14.3325 20.1664 14.3325C19.9259 14.3325 19.6947 14.4253 19.521 14.5916C19.1335 14.9612 18.6185 15.1674 18.083 15.1674C17.5475 15.1674 17.0326 14.9612 16.6451 14.5916C16.4714 14.4256 16.2404 14.3329 16.0001 14.3329C15.7598 14.3329 15.5288 14.4256 15.3551 14.5916C14.9676 14.9615 14.4525 15.1678 13.9168 15.1678C13.3811 15.1678 12.866 14.9615 12.4785 14.5916C12.3047 14.4253 12.0735 14.3325 11.833 14.3325C11.5926 14.3325 11.3613 14.4253 11.1876 14.5916C10.8133 14.9488 10.3195 15.1539 9.80231 15.1671C9.28511 15.1802 8.78151 15.0005 8.38954 14.6628C7.99758 14.3251 7.74529 13.8536 7.68178 13.3402C7.61827 12.8267 7.74808 12.308 8.04596 11.885L10.4535 8.39829C10.6062 8.17289 10.8119 7.98834 11.0524 7.86079C11.293 7.73324 11.5612 7.66658 11.8335 7.66663H20.1668C20.4383 7.66652 20.7057 7.73274 20.9458 7.85953C21.1858 7.98632 21.3913 8.16984 21.5443 8.39413L23.9568 11.8875C24.2547 12.3108 24.3844 12.8299 24.3205 13.3437C24.2566 13.8574 24.0037 14.3289 23.6111 14.6664C23.2185 15.0038 22.7144 15.183 22.1969 15.1691C21.6794 15.1551 21.1856 14.9489 20.8118 14.5908" stroke="black" stroke-width="2" stroke-linecap="round" stroke-linejoin="round"/>
<path d="M9.33301 15.125V21.8333C9.33301 22.2754 9.5086 22.6993 9.82116 23.0118C10.1337 23.3244 10.5576 23.5 10.9997 23.5H20.9997C21.4417 23.5 21.8656 23.3244 22.1782 23.0118C22.4907 22.6993 22.6663 22.2754 22.6663 21.8333V15.125" stroke="black" stroke-width="2" stroke-linecap="round" stroke-linejoin="round"/>
</g>
</svg>
