<svg width="393" height="852" viewBox="0 0 393 852" fill="none" xmlns="http://www.w3.org/2000/svg">
<g clip-path="url(#clip0_179_22)">
<rect width="393" height="852" fill="#8E52FF"/>
<path opacity="0.05" d="M0 409.644C0 409.644 107 142.1 201.5 254.632C296 367.163 413 867 413 867H0V409.644Z" fill="white"/>
<path opacity="0.05" d="M-11.3719 152.59C-11.3719 152.59 315.517 -20.9294 337.222 185.998C358.927 392.925 66.4902 984.885 66.4902 984.885L-361.443 624.835L-11.3719 152.59Z" fill="white"/>
<path d="M123.472 375.528C121.477 375.528 119.82 375.205 118.5 374.56C117.18 373.915 116.197 372.961 115.552 371.7C114.907 370.409 114.584 368.825 114.584 366.948C114.584 366.156 114.628 365.364 114.716 364.572C114.804 363.78 114.921 363.017 115.068 362.284C115.508 360.143 116.197 358.251 117.136 356.608C118.075 354.965 119.336 353.675 120.92 352.736C122.504 351.797 124.469 351.328 126.816 351.328C128.781 351.328 130.38 351.665 131.612 352.34C132.873 353.015 133.812 353.968 134.428 355.2C135.044 356.432 135.352 357.913 135.352 359.644C135.352 360.319 135.293 361.052 135.176 361.844C135.088 362.636 134.941 363.443 134.736 364.264H118.104C118.016 364.733 117.957 365.188 117.928 365.628C117.899 366.039 117.884 366.449 117.884 366.86C117.884 368.268 118.089 369.412 118.5 370.292C118.94 371.172 119.585 371.817 120.436 372.228C121.316 372.639 122.387 372.844 123.648 372.844C124.44 372.844 125.203 372.741 125.936 372.536C126.669 372.331 127.359 372.008 128.004 371.568C128.649 371.128 129.221 370.556 129.72 369.852C130.248 369.119 130.659 368.239 130.952 367.212H134.032C133.68 368.62 133.181 369.852 132.536 370.908C131.891 371.935 131.113 372.8 130.204 373.504C129.295 374.179 128.268 374.677 127.124 375C125.98 375.352 124.763 375.528 123.472 375.528ZM118.588 361.756H131.964C132.023 361.287 132.067 360.861 132.096 360.48C132.155 360.069 132.184 359.673 132.184 359.292C132.184 358.148 131.979 357.18 131.568 356.388C131.187 355.596 130.585 355.009 129.764 354.628C128.972 354.217 127.945 354.012 126.684 354.012C125.305 354.012 124.073 354.305 122.988 354.892C121.903 355.479 120.993 356.359 120.26 357.532C119.527 358.676 118.969 360.084 118.588 361.756ZM139.888 375L151.636 344.816H158.852L170.644 375H164.44L162.02 368.576H148.204L145.784 375H139.888ZM150.008 363.736H160.172L157.136 355.552C157.019 355.259 156.872 354.892 156.696 354.452C156.549 353.983 156.388 353.484 156.212 352.956C156.036 352.399 155.86 351.841 155.684 351.284C155.508 350.727 155.347 350.228 155.2 349.788H154.98C154.804 350.375 154.584 351.049 154.32 351.812C154.085 352.575 153.851 353.293 153.616 353.968C153.381 354.643 153.191 355.171 153.044 355.552L150.008 363.736ZM174.471 383.008C173.445 383.008 172.477 382.803 171.567 382.392C170.658 381.981 169.925 381.365 169.367 380.544C168.81 379.752 168.531 378.769 168.531 377.596C168.531 376.305 168.898 375.293 169.631 374.56C170.394 373.797 171.23 373.225 172.139 372.844C171.465 372.492 170.907 372.023 170.467 371.436C170.057 370.849 169.851 370.145 169.851 369.324C169.851 368.209 170.262 367.329 171.083 366.684C171.905 366.009 172.843 365.569 173.899 365.364C172.814 364.689 171.978 363.824 171.391 362.768C170.834 361.712 170.555 360.509 170.555 359.16C170.555 357.547 170.937 356.168 171.699 355.024C172.491 353.851 173.635 352.941 175.131 352.296C176.627 351.651 178.431 351.328 180.543 351.328C181.394 351.328 182.215 351.387 183.007 351.504C183.799 351.621 184.518 351.797 185.163 352.032C186.19 351.416 186.894 350.727 187.275 349.964C187.657 349.172 187.862 348.527 187.891 348.028H193.127C193.127 349.055 192.922 349.964 192.511 350.756C192.13 351.548 191.587 352.208 190.883 352.736C190.179 353.235 189.329 353.601 188.331 353.836C189.065 354.481 189.622 355.259 190.003 356.168C190.385 357.077 190.575 358.075 190.575 359.16C190.575 360.773 190.194 362.167 189.431 363.34C188.698 364.513 187.598 365.423 186.131 366.068C184.694 366.713 182.919 367.036 180.807 367.036H177.243C176.627 367.036 176.143 367.168 175.791 367.432C175.469 367.696 175.307 368.063 175.307 368.532C175.307 368.913 175.454 369.251 175.747 369.544C176.07 369.837 176.51 369.984 177.067 369.984H187.187C188.918 369.984 190.341 370.556 191.455 371.7C192.599 372.815 193.171 374.252 193.171 376.012C193.171 377.332 192.819 378.52 192.115 379.576C191.441 380.632 190.487 381.468 189.255 382.084C188.023 382.7 186.586 383.008 184.943 383.008H174.471ZM176.407 379.136H184.899C185.457 379.136 185.941 379.033 186.351 378.828C186.791 378.652 187.129 378.388 187.363 378.036C187.627 377.684 187.759 377.288 187.759 376.848C187.759 376.085 187.51 375.513 187.011 375.132C186.542 374.751 185.955 374.56 185.251 374.56H176.407C175.703 374.56 175.117 374.765 174.647 375.176C174.178 375.616 173.943 376.173 173.943 376.848C173.943 377.523 174.163 378.065 174.603 378.476C175.073 378.916 175.674 379.136 176.407 379.136ZM180.587 363.252C182.142 363.252 183.301 362.9 184.063 362.196C184.855 361.463 185.251 360.451 185.251 359.16C185.251 357.869 184.855 356.872 184.063 356.168C183.301 355.464 182.142 355.112 180.587 355.112C179.033 355.112 177.859 355.464 177.067 356.168C176.305 356.872 175.923 357.869 175.923 359.16C175.923 360.011 176.085 360.744 176.407 361.36C176.759 361.976 177.273 362.445 177.947 362.768C178.651 363.091 179.531 363.252 180.587 363.252ZM203.504 375.528C201.04 375.528 198.986 375.103 197.344 374.252C195.701 373.372 194.469 372.037 193.648 370.248C192.826 368.459 192.416 366.185 192.416 363.428C192.416 360.641 192.826 358.368 193.648 356.608C194.469 354.819 195.701 353.499 197.344 352.648C198.986 351.768 201.04 351.328 203.504 351.328C205.733 351.328 207.596 351.753 209.092 352.604C210.617 353.425 211.761 354.701 212.524 356.432C213.286 358.163 213.668 360.407 213.668 363.164V364.748H197.916C197.974 366.185 198.194 367.403 198.576 368.4C198.957 369.368 199.544 370.101 200.336 370.6C201.157 371.069 202.228 371.304 203.548 371.304C204.222 371.304 204.853 371.216 205.44 371.04C206.026 370.864 206.54 370.6 206.98 370.248C207.42 369.867 207.757 369.397 207.992 368.84C208.256 368.283 208.388 367.637 208.388 366.904H213.668C213.668 368.371 213.404 369.647 212.876 370.732C212.377 371.817 211.658 372.712 210.72 373.416C209.81 374.12 208.74 374.648 207.508 375C206.276 375.352 204.941 375.528 203.504 375.528ZM198.004 360.964H208.08C208.08 359.996 207.962 359.175 207.728 358.5C207.522 357.825 207.214 357.268 206.804 356.828C206.422 356.388 205.953 356.08 205.396 355.904C204.838 355.699 204.208 355.596 203.504 355.596C202.36 355.596 201.392 355.787 200.6 356.168C199.837 356.549 199.25 357.136 198.84 357.928C198.429 358.72 198.15 359.732 198.004 360.964ZM215.144 375V351.856H219.632L220.072 354.936H220.38C220.908 354.232 221.524 353.616 222.228 353.088C222.961 352.531 223.782 352.105 224.692 351.812C225.63 351.489 226.657 351.328 227.772 351.328C229.238 351.328 230.529 351.592 231.644 352.12C232.788 352.648 233.682 353.499 234.328 354.672C234.973 355.845 235.296 357.415 235.296 359.38V375H229.884V360.348C229.884 359.527 229.781 358.852 229.576 358.324C229.4 357.767 229.121 357.327 228.74 357.004C228.388 356.652 227.948 356.403 227.42 356.256C226.892 356.109 226.305 356.036 225.66 356.036C224.692 356.036 223.812 356.271 223.02 356.74C222.257 357.209 221.641 357.855 221.172 358.676C220.732 359.497 220.512 360.451 220.512 361.536V375H215.144ZM247.395 375.528C244.99 375.528 242.98 375.103 241.367 374.252C239.783 373.372 238.595 372.037 237.803 370.248C237.011 368.459 236.615 366.185 236.615 363.428C236.615 360.641 237.011 358.368 237.803 356.608C238.624 354.819 239.827 353.499 241.411 352.648C243.024 351.768 245.019 351.328 247.395 351.328C248.95 351.328 250.328 351.519 251.531 351.9C252.734 352.281 253.76 352.868 254.611 353.66C255.491 354.423 256.151 355.376 256.591 356.52C257.031 357.664 257.251 358.999 257.251 360.524H251.795C251.795 359.439 251.634 358.544 251.311 357.84C250.988 357.136 250.49 356.608 249.815 356.256C249.17 355.875 248.334 355.684 247.307 355.684C246.104 355.684 245.122 355.963 244.359 356.52C243.596 357.077 243.024 357.913 242.643 359.028C242.291 360.113 242.115 361.492 242.115 363.164V363.736C242.115 365.379 242.291 366.757 242.643 367.872C243.024 368.987 243.611 369.823 244.403 370.38C245.195 370.908 246.236 371.172 247.527 371.172C248.524 371.172 249.346 370.996 249.991 370.644C250.666 370.263 251.179 369.705 251.531 368.972C251.883 368.239 252.059 367.359 252.059 366.332H257.251C257.251 367.769 257.031 369.06 256.591 370.204C256.151 371.348 255.506 372.316 254.655 373.108C253.804 373.9 252.763 374.501 251.531 374.912C250.328 375.323 248.95 375.528 247.395 375.528ZM261.821 383.008C260.736 383.008 259.856 382.92 259.181 382.744C258.507 382.597 258.125 382.509 258.037 382.48V378.652H260.501C261.117 378.652 261.733 378.491 262.349 378.168C262.965 377.845 263.523 377.405 264.021 376.848C264.52 376.291 264.887 375.675 265.121 375L256.101 351.856H261.733L266.045 362.944C266.251 363.443 266.456 364.073 266.661 364.836C266.896 365.599 267.131 366.391 267.365 367.212C267.6 368.004 267.791 368.723 267.937 369.368H268.157C268.275 368.928 268.407 368.429 268.553 367.872C268.7 367.315 268.847 366.743 268.993 366.156C269.169 365.569 269.345 364.997 269.521 364.44C269.697 363.883 269.844 363.399 269.961 362.988L273.481 351.856H278.937L271.193 373.812C270.753 375.044 270.255 376.217 269.697 377.332C269.169 378.447 268.539 379.429 267.805 380.28C267.101 381.131 266.251 381.791 265.253 382.26C264.285 382.759 263.141 383.008 261.821 383.008Z" fill="white"/>
<path d="M227.128 720H166.872C162.518 720 158.988 723.519 158.988 727.861V743.136C158.988 747.478 162.518 750.997 166.872 750.997H227.126C231.48 750.997 235.009 747.478 235.009 743.136V727.861C235.009 723.519 231.48 720 227.126 720H227.128ZM178.626 742.033H175.956L173.487 733.582H173.385L170.925 742.033H168.255L164.546 729.109H167.538L169.684 738.09H169.791L172.158 729.109H174.72L177.081 738.109H177.194L179.34 729.109H182.333L178.623 742.033H178.626ZM192.862 740.367C192.435 740.94 191.844 741.39 191.095 741.717C190.343 742.046 189.483 742.209 188.513 742.209C187.544 742.209 186.727 742.046 185.991 741.719C185.255 741.393 184.675 740.943 184.251 740.369C183.826 739.796 183.609 739.132 183.595 738.379H186.354C186.37 738.695 186.475 738.971 186.668 739.21C186.859 739.448 187.117 739.63 187.436 739.761C187.756 739.893 188.119 739.957 188.519 739.957C188.919 739.957 189.306 739.885 189.625 739.737C189.945 739.59 190.198 739.386 190.378 739.124C190.56 738.864 190.649 738.561 190.649 738.221C190.649 737.881 190.552 737.57 190.361 737.303C190.171 737.035 189.894 736.826 189.539 736.676C189.182 736.523 188.76 736.448 188.272 736.448H187.063V734.442H188.272C188.685 734.442 189.051 734.37 189.37 734.228C189.69 734.086 189.937 733.885 190.114 733.63C190.292 733.376 190.38 733.079 190.38 732.739C190.38 732.398 190.302 732.131 190.149 731.884C189.996 731.638 189.781 731.445 189.505 731.306C189.228 731.166 188.906 731.097 188.54 731.097C188.175 731.097 187.828 731.164 187.522 731.295C187.213 731.426 186.966 731.616 186.781 731.86C186.596 732.104 186.496 732.39 186.483 732.717H183.856C183.869 731.973 184.081 731.316 184.495 730.748C184.909 730.181 185.467 729.736 186.168 729.415C186.872 729.093 187.665 728.933 188.551 728.933C189.437 728.933 190.227 729.093 190.899 729.417C191.57 729.741 192.091 730.178 192.465 730.727C192.838 731.276 193.023 731.892 193.018 732.572C193.023 733.296 192.798 733.901 192.344 734.383C191.89 734.868 191.302 735.173 190.576 735.304V735.406C191.53 735.529 192.258 735.856 192.757 736.395C193.257 736.93 193.504 737.6 193.501 738.403C193.507 739.14 193.295 739.794 192.865 740.367H192.862ZM233.411 741.888C233.411 746.136 229.957 749.583 225.694 749.583H206.612C202.349 749.583 198.895 746.139 198.895 741.888V729.112C198.895 724.864 202.349 721.417 206.612 721.417H225.694C229.957 721.417 233.411 724.861 233.411 729.112V741.888Z" fill="white"/>
<path d="M213.021 730.06C212.081 729.546 210.958 729.286 209.655 729.286H205.022V742.209H209.615C210.931 742.209 212.062 741.95 213.01 741.433C213.959 740.916 214.686 740.174 215.194 739.204C215.702 738.237 215.957 737.08 215.957 735.733C215.957 734.386 215.702 733.239 215.194 732.275C214.686 731.311 213.961 730.572 213.021 730.057V730.06ZM212.804 738.093C212.524 738.701 212.105 739.148 211.549 739.437C210.993 739.727 210.311 739.868 209.502 739.868H207.762V731.627H209.508C210.319 731.627 210.998 731.769 211.552 732.056C212.105 732.342 212.521 732.787 212.801 733.392C213.08 733.997 213.223 734.78 213.223 735.733C213.223 736.687 213.083 737.482 212.801 738.09L212.804 738.093Z" fill="white"/>
<path d="M226.717 736.001C226.371 735.693 225.963 735.436 225.49 735.224C225.017 735.013 224.499 734.846 223.932 734.718L222.769 734.439C222.487 734.375 222.221 734.3 221.971 734.209C221.721 734.118 221.504 734.011 221.313 733.888C221.122 733.764 220.975 733.614 220.867 733.443C220.76 733.272 220.709 733.068 220.719 732.838C220.719 732.559 220.8 732.313 220.964 732.093C221.125 731.873 221.361 731.702 221.67 731.579C221.979 731.456 222.355 731.391 222.804 731.391C223.462 731.391 223.983 731.533 224.367 731.815C224.751 732.096 224.969 732.492 225.02 733.001H227.647C227.633 732.232 227.426 731.555 227.026 730.968C226.626 730.384 226.065 729.926 225.345 729.599C224.625 729.273 223.784 729.107 222.823 729.107C221.861 729.107 221.034 729.27 220.292 729.599C219.551 729.929 218.965 730.384 218.544 730.968C218.119 731.552 217.91 732.238 217.915 733.02C217.91 733.976 218.224 734.734 218.858 735.299C219.492 735.862 220.354 736.277 221.447 736.542L222.857 736.895C223.33 737.008 223.73 737.137 224.055 737.273C224.383 737.412 224.63 737.581 224.802 737.777C224.974 737.975 225.06 738.219 225.06 738.508C225.06 738.819 224.966 739.094 224.775 739.336C224.585 739.577 224.319 739.761 223.975 739.898C223.631 740.032 223.228 740.099 222.763 740.099C222.299 740.099 221.869 740.027 221.496 739.882C221.122 739.737 220.824 739.52 220.604 739.231C220.384 738.942 220.257 738.583 220.228 738.149H217.577C217.598 739.078 217.824 739.858 218.256 740.487C218.689 741.117 219.293 741.591 220.067 741.909C220.84 742.228 221.751 742.389 222.798 742.389C223.846 742.389 224.754 742.231 225.503 741.912C226.253 741.593 226.825 741.146 227.225 740.568C227.625 739.989 227.824 739.303 227.829 738.513C227.824 737.975 227.727 737.498 227.534 737.08C227.343 736.665 227.072 736.301 226.728 735.996L226.717 736.001Z" fill="white"/>
<path d="M89.5738 411V406.44L85.2538 400.024H86.9978L90.3418 405.096H90.4218L93.7498 400.024H95.4138L91.1098 406.44V411H89.5738ZM98.6225 411.192C97.7692 411.192 97.0492 411.037 96.4625 410.728C95.8865 410.408 95.4438 409.923 95.1345 409.272C94.8358 408.621 94.6865 407.795 94.6865 406.792C94.6865 405.779 94.8358 404.952 95.1345 404.312C95.4438 403.661 95.8865 403.181 96.4625 402.872C97.0492 402.552 97.7692 402.392 98.6225 402.392C99.4758 402.392 100.191 402.552 100.767 402.872C101.353 403.181 101.796 403.661 102.095 404.312C102.393 404.952 102.543 405.779 102.543 406.792C102.543 407.795 102.393 408.621 102.095 409.272C101.796 409.923 101.353 410.408 100.767 410.728C100.191 411.037 99.4758 411.192 98.6225 411.192ZM98.6225 410.008C99.1665 410.008 99.6198 409.901 99.9825 409.688C100.345 409.475 100.617 409.144 100.799 408.696C100.991 408.237 101.087 407.661 101.087 406.968V406.616C101.087 405.912 100.991 405.336 100.799 404.888C100.617 404.44 100.345 404.109 99.9825 403.896C99.6198 403.683 99.1665 403.576 98.6225 403.576C98.0785 403.576 97.6198 403.683 97.2465 403.896C96.8838 404.109 96.6118 404.44 96.4305 404.888C96.2492 405.336 96.1585 405.912 96.1585 406.616V406.968C96.1585 407.661 96.2492 408.237 96.4305 408.696C96.6118 409.144 96.8838 409.475 97.2465 409.688C97.6198 409.901 98.0785 410.008 98.6225 410.008ZM106.9 411.192C106.089 411.192 105.438 410.984 104.948 410.568C104.457 410.152 104.212 409.427 104.212 408.392V402.584H105.62V408.2C105.62 408.552 105.662 408.84 105.748 409.064C105.833 409.288 105.956 409.464 106.116 409.592C106.276 409.72 106.462 409.811 106.676 409.864C106.9 409.917 107.14 409.944 107.396 409.944C107.801 409.944 108.174 409.848 108.516 409.656C108.857 409.464 109.134 409.187 109.348 408.824C109.572 408.451 109.684 408.019 109.684 407.528V402.584H111.092V411H109.956L109.828 409.736H109.716C109.492 410.077 109.236 410.355 108.948 410.568C108.67 410.781 108.356 410.936 108.004 411.032C107.662 411.139 107.294 411.192 106.9 411.192ZM113.276 411V402.584H114.412L114.54 403.976H114.652C114.737 403.709 114.855 403.459 115.004 403.224C115.153 402.979 115.356 402.781 115.612 402.632C115.868 402.472 116.183 402.392 116.556 402.392C116.716 402.392 116.86 402.408 116.988 402.44C117.127 402.461 117.228 402.488 117.292 402.52V403.816H116.764C116.401 403.816 116.087 403.88 115.82 404.008C115.564 404.125 115.351 404.296 115.18 404.52C115.009 404.744 114.881 405.011 114.796 405.32C114.721 405.629 114.684 405.96 114.684 406.312V411H113.276ZM124.564 411.192C123.988 411.192 123.481 411.133 123.044 411.016C122.606 410.899 122.244 410.728 121.956 410.504C121.668 410.28 121.449 410.013 121.3 409.704C121.15 409.395 121.076 409.043 121.076 408.648C121.076 408.595 121.076 408.547 121.076 408.504C121.076 408.451 121.081 408.408 121.092 408.376H122.484C122.473 408.419 122.468 408.456 122.468 408.488C122.468 408.52 122.468 408.552 122.468 408.584C122.478 408.957 122.574 409.251 122.756 409.464C122.948 409.677 123.209 409.827 123.54 409.912C123.87 409.997 124.238 410.04 124.644 410.04C124.996 410.04 125.321 409.997 125.62 409.912C125.918 409.816 126.153 409.677 126.324 409.496C126.505 409.304 126.596 409.064 126.596 408.776C126.596 408.424 126.478 408.157 126.244 407.976C126.02 407.784 125.721 407.635 125.348 407.528C124.974 407.421 124.585 407.309 124.18 407.192C123.838 407.096 123.497 406.989 123.156 406.872C122.814 406.755 122.505 406.611 122.228 406.44C121.961 406.269 121.742 406.051 121.572 405.784C121.412 405.507 121.332 405.16 121.332 404.744C121.332 404.371 121.406 404.04 121.556 403.752C121.716 403.464 121.94 403.219 122.228 403.016C122.516 402.813 122.862 402.664 123.268 402.568C123.684 402.461 124.142 402.408 124.644 402.408C125.177 402.408 125.641 402.467 126.036 402.584C126.441 402.701 126.777 402.867 127.044 403.08C127.31 403.293 127.508 403.539 127.636 403.816C127.764 404.083 127.828 404.371 127.828 404.68C127.828 404.744 127.828 404.808 127.828 404.872C127.828 404.925 127.822 404.968 127.812 405H126.436V404.824C126.436 404.611 126.377 404.408 126.26 404.216C126.153 404.013 125.961 403.853 125.684 403.736C125.417 403.608 125.044 403.544 124.564 403.544C124.254 403.544 123.988 403.571 123.764 403.624C123.54 403.667 123.353 403.741 123.204 403.848C123.054 403.944 122.942 404.061 122.868 404.2C122.793 404.328 122.756 404.477 122.756 404.648C122.756 404.925 122.846 405.139 123.028 405.288C123.209 405.437 123.449 405.56 123.748 405.656C124.057 405.752 124.388 405.859 124.74 405.976C125.113 406.083 125.492 406.195 125.876 406.312C126.27 406.419 126.628 406.557 126.948 406.728C127.278 406.899 127.54 407.133 127.732 407.432C127.934 407.72 128.036 408.104 128.036 408.584C128.036 409.032 127.95 409.421 127.78 409.752C127.609 410.083 127.364 410.355 127.044 410.568C126.734 410.781 126.366 410.936 125.94 411.032C125.524 411.139 125.065 411.192 124.564 411.192ZM133.136 411.192C132.304 411.192 131.6 411.037 131.024 410.728C130.459 410.408 130.027 409.923 129.728 409.272C129.44 408.621 129.296 407.795 129.296 406.792C129.296 405.779 129.44 404.952 129.728 404.312C130.027 403.661 130.464 403.181 131.04 402.872C131.616 402.552 132.336 402.392 133.2 402.392C133.989 402.392 134.651 402.547 135.184 402.856C135.717 403.155 136.117 403.608 136.384 404.216C136.661 404.813 136.8 405.565 136.8 406.472V407.144H130.752C130.773 407.816 130.869 408.371 131.04 408.808C131.221 409.235 131.488 409.549 131.84 409.752C132.192 409.944 132.635 410.04 133.168 410.04C133.531 410.04 133.845 409.997 134.112 409.912C134.389 409.816 134.619 409.683 134.8 409.512C134.992 409.341 135.136 409.139 135.232 408.904C135.328 408.669 135.381 408.413 135.392 408.136H136.768C136.757 408.584 136.672 409 136.512 409.384C136.352 409.757 136.117 410.077 135.808 410.344C135.499 410.611 135.12 410.819 134.672 410.968C134.224 411.117 133.712 411.192 133.136 411.192ZM130.784 406.088H135.344C135.344 405.619 135.291 405.224 135.184 404.904C135.077 404.584 134.923 404.323 134.72 404.12C134.528 403.917 134.299 403.773 134.032 403.688C133.776 403.592 133.483 403.544 133.152 403.544C132.661 403.544 132.245 403.635 131.904 403.816C131.563 403.997 131.301 404.275 131.12 404.648C130.939 405.021 130.827 405.501 130.784 406.088ZM138.542 411V399.432H139.95V411H138.542ZM142.471 411V403.768H141.223V402.584H142.471V401.24C142.471 400.909 142.519 400.6 142.615 400.312C142.711 400.013 142.893 399.773 143.159 399.592C143.426 399.4 143.799 399.304 144.279 399.304C144.429 399.304 144.573 399.315 144.711 399.336C144.861 399.347 144.999 399.368 145.127 399.4C145.266 399.421 145.389 399.448 145.495 399.48V400.488H144.647C144.381 400.488 144.183 400.557 144.055 400.696C143.938 400.824 143.879 401.011 143.879 401.256V402.584H145.495V403.768H143.879V411H142.471ZM145.999 407.384V405.96H150.047V407.384H145.999ZM154.736 411.192C154.16 411.192 153.653 411.133 153.216 411.016C152.778 410.899 152.416 410.728 152.128 410.504C151.84 410.28 151.621 410.013 151.472 409.704C151.322 409.395 151.248 409.043 151.248 408.648C151.248 408.595 151.248 408.547 151.248 408.504C151.248 408.451 151.253 408.408 151.264 408.376H152.656C152.645 408.419 152.64 408.456 152.64 408.488C152.64 408.52 152.64 408.552 152.64 408.584C152.65 408.957 152.746 409.251 152.928 409.464C153.12 409.677 153.381 409.827 153.712 409.912C154.042 409.997 154.41 410.04 154.816 410.04C155.168 410.04 155.493 409.997 155.792 409.912C156.09 409.816 156.325 409.677 156.496 409.496C156.677 409.304 156.768 409.064 156.768 408.776C156.768 408.424 156.65 408.157 156.416 407.976C156.192 407.784 155.893 407.635 155.52 407.528C155.146 407.421 154.757 407.309 154.352 407.192C154.01 407.096 153.669 406.989 153.328 406.872C152.986 406.755 152.677 406.611 152.4 406.44C152.133 406.269 151.914 406.051 151.743 405.784C151.584 405.507 151.504 405.16 151.504 404.744C151.504 404.371 151.578 404.04 151.728 403.752C151.888 403.464 152.112 403.219 152.4 403.016C152.688 402.813 153.034 402.664 153.44 402.568C153.856 402.461 154.314 402.408 154.816 402.408C155.349 402.408 155.813 402.467 156.208 402.584C156.613 402.701 156.949 402.867 157.216 403.08C157.482 403.293 157.68 403.539 157.808 403.816C157.936 404.083 158 404.371 158 404.68C158 404.744 158 404.808 158 404.872C158 404.925 157.994 404.968 157.984 405H156.608V404.824C156.608 404.611 156.549 404.408 156.432 404.216C156.325 404.013 156.133 403.853 155.856 403.736C155.589 403.608 155.216 403.544 154.736 403.544C154.426 403.544 154.16 403.571 153.936 403.624C153.712 403.667 153.525 403.741 153.376 403.848C153.226 403.944 153.114 404.061 153.039 404.2C152.965 404.328 152.928 404.477 152.928 404.648C152.928 404.925 153.018 405.139 153.2 405.288C153.381 405.437 153.621 405.56 153.92 405.656C154.229 405.752 154.56 405.859 154.911 405.976C155.285 406.083 155.664 406.195 156.048 406.312C156.442 406.419 156.8 406.557 157.12 406.728C157.45 406.899 157.712 407.133 157.904 407.432C158.106 407.72 158.208 408.104 158.208 408.584C158.208 409.032 158.122 409.421 157.952 409.752C157.781 410.083 157.536 410.355 157.216 410.568C156.906 410.781 156.538 410.936 156.112 411.032C155.696 411.139 155.237 411.192 154.736 411.192ZM163.404 411.192C162.55 411.192 161.83 411.037 161.244 410.728C160.668 410.408 160.225 409.923 159.916 409.272C159.617 408.621 159.468 407.795 159.468 406.792C159.468 405.779 159.617 404.952 159.916 404.312C160.225 403.661 160.668 403.181 161.244 402.872C161.83 402.552 162.55 402.392 163.404 402.392C164.257 402.392 164.972 402.552 165.548 402.872C166.134 403.181 166.577 403.661 166.876 404.312C167.174 404.952 167.324 405.779 167.324 406.792C167.324 407.795 167.174 408.621 166.876 409.272C166.577 409.923 166.134 410.408 165.548 410.728C164.972 411.037 164.257 411.192 163.404 411.192ZM163.404 410.008C163.948 410.008 164.401 409.901 164.764 409.688C165.126 409.475 165.398 409.144 165.58 408.696C165.772 408.237 165.868 407.661 165.868 406.968V406.616C165.868 405.912 165.772 405.336 165.58 404.888C165.398 404.44 165.126 404.109 164.764 403.896C164.401 403.683 163.948 403.576 163.404 403.576C162.86 403.576 162.401 403.683 162.028 403.896C161.665 404.109 161.393 404.44 161.212 404.888C161.03 405.336 160.94 405.912 160.94 406.616V406.968C160.94 407.661 161.03 408.237 161.212 408.696C161.393 409.144 161.665 409.475 162.028 409.688C162.401 409.901 162.86 410.008 163.404 410.008ZM171.219 411L168.099 402.584H169.571L171.107 406.792C171.181 406.995 171.267 407.251 171.363 407.56C171.459 407.859 171.555 408.168 171.651 408.488C171.757 408.797 171.843 409.075 171.907 409.32H171.987C172.061 409.085 172.147 408.813 172.243 408.504C172.339 408.184 172.435 407.875 172.531 407.576C172.637 407.267 172.728 407.005 172.803 406.792L174.323 402.584H175.747L172.627 411H171.219ZM180.339 411.192C179.507 411.192 178.803 411.037 178.227 410.728C177.662 410.408 177.23 409.923 176.931 409.272C176.643 408.621 176.499 407.795 176.499 406.792C176.499 405.779 176.643 404.952 176.931 404.312C177.23 403.661 177.667 403.181 178.243 402.872C178.819 402.552 179.539 402.392 180.403 402.392C181.192 402.392 181.854 402.547 182.387 402.856C182.92 403.155 183.32 403.608 183.587 404.216C183.864 404.813 184.003 405.565 184.003 406.472V407.144H177.955C177.976 407.816 178.072 408.371 178.243 408.808C178.424 409.235 178.691 409.549 179.043 409.752C179.395 409.944 179.838 410.04 180.371 410.04C180.734 410.04 181.048 409.997 181.315 409.912C181.592 409.816 181.822 409.683 182.003 409.512C182.195 409.341 182.339 409.139 182.435 408.904C182.531 408.669 182.584 408.413 182.595 408.136H183.971C183.96 408.584 183.875 409 183.715 409.384C183.555 409.757 183.32 410.077 183.011 410.344C182.702 410.611 182.323 410.819 181.875 410.968C181.427 411.117 180.915 411.192 180.339 411.192ZM177.987 406.088H182.547C182.547 405.619 182.494 405.224 182.387 404.904C182.28 404.584 182.126 404.323 181.923 404.12C181.731 403.917 181.502 403.773 181.235 403.688C180.979 403.592 180.686 403.544 180.355 403.544C179.864 403.544 179.448 403.635 179.107 403.816C178.766 403.997 178.504 404.275 178.323 404.648C178.142 405.021 178.03 405.501 177.987 406.088ZM185.745 411V402.584H186.881L187.009 403.976H187.121C187.206 403.709 187.323 403.459 187.473 403.224C187.622 402.979 187.825 402.781 188.081 402.632C188.337 402.472 188.651 402.392 189.025 402.392C189.185 402.392 189.329 402.408 189.457 402.44C189.595 402.461 189.697 402.488 189.761 402.52V403.816H189.233C188.87 403.816 188.555 403.88 188.289 404.008C188.033 404.125 187.819 404.296 187.649 404.52C187.478 404.744 187.35 405.011 187.265 405.32C187.19 405.629 187.153 405.96 187.153 406.312V411H185.745ZM194.261 411.192C193.429 411.192 192.725 411.037 192.149 410.728C191.584 410.408 191.152 409.923 190.853 409.272C190.565 408.621 190.421 407.795 190.421 406.792C190.421 405.779 190.565 404.952 190.853 404.312C191.152 403.661 191.589 403.181 192.165 402.872C192.741 402.552 193.461 402.392 194.325 402.392C195.114 402.392 195.776 402.547 196.309 402.856C196.842 403.155 197.242 403.608 197.509 404.216C197.786 404.813 197.925 405.565 197.925 406.472V407.144H191.877C191.898 407.816 191.994 408.371 192.165 408.808C192.346 409.235 192.613 409.549 192.965 409.752C193.317 409.944 193.76 410.04 194.293 410.04C194.656 410.04 194.97 409.997 195.237 409.912C195.514 409.816 195.744 409.683 195.925 409.512C196.117 409.341 196.261 409.139 196.357 408.904C196.453 408.669 196.506 408.413 196.517 408.136H197.893C197.882 408.584 197.797 409 197.637 409.384C197.477 409.757 197.242 410.077 196.933 410.344C196.624 410.611 196.245 410.819 195.797 410.968C195.349 411.117 194.837 411.192 194.261 411.192ZM191.909 406.088H196.469C196.469 405.619 196.416 405.224 196.309 404.904C196.202 404.584 196.048 404.323 195.845 404.12C195.653 403.917 195.424 403.773 195.157 403.688C194.901 403.592 194.608 403.544 194.277 403.544C193.786 403.544 193.37 403.635 193.029 403.816C192.688 403.997 192.426 404.275 192.245 404.648C192.064 405.021 191.952 405.501 191.909 406.088ZM199.667 401V399.432H201.075V401H199.667ZM199.667 411V402.584H201.075V411H199.667ZM204.684 413.912C204.279 413.912 203.906 413.827 203.564 413.656C203.223 413.496 202.951 413.261 202.748 412.952C202.546 412.643 202.444 412.275 202.444 411.848C202.444 411.379 202.572 410.989 202.828 410.68C203.095 410.371 203.41 410.141 203.772 409.992C203.506 409.864 203.298 409.688 203.148 409.464C202.999 409.229 202.924 408.973 202.924 408.696C202.924 408.323 203.058 408.008 203.324 407.752C203.602 407.496 203.938 407.325 204.332 407.24C203.97 407.005 203.682 406.707 203.468 406.344C203.266 405.971 203.164 405.56 203.164 405.112C203.164 404.579 203.287 404.109 203.532 403.704C203.788 403.299 204.172 402.979 204.684 402.744C205.207 402.509 205.842 402.392 206.588 402.392C206.93 402.392 207.25 402.419 207.548 402.472C207.847 402.515 208.114 402.589 208.348 402.696C208.722 402.525 208.999 402.307 209.18 402.04C209.372 401.773 209.49 401.501 209.532 401.224H210.924C210.924 401.544 210.85 401.848 210.7 402.136C210.562 402.413 210.37 402.648 210.124 402.84C209.879 403.021 209.58 403.144 209.228 403.208C209.495 403.464 209.692 403.752 209.82 404.072C209.959 404.392 210.028 404.739 210.028 405.112C210.028 405.645 209.9 406.12 209.644 406.536C209.399 406.941 209.026 407.261 208.524 407.496C208.023 407.731 207.394 407.848 206.636 407.848H205.324C205.036 407.848 204.802 407.907 204.62 408.024C204.439 408.131 204.348 408.307 204.348 408.552C204.348 408.765 204.439 408.941 204.62 409.08C204.802 409.208 205.036 409.272 205.324 409.272H208.748C209.367 409.272 209.874 409.48 210.268 409.896C210.663 410.301 210.86 410.824 210.86 411.464C210.86 411.923 210.743 412.333 210.508 412.696C210.284 413.069 209.964 413.363 209.548 413.576C209.143 413.8 208.668 413.912 208.124 413.912H204.684ZM205.084 412.84H208.108C208.354 412.84 208.578 412.787 208.78 412.68C208.983 412.584 209.143 412.445 209.26 412.264C209.378 412.083 209.436 411.885 209.436 411.672C209.436 411.309 209.33 411.021 209.116 410.808C208.903 410.595 208.636 410.488 208.316 410.488H205.084C204.743 410.488 204.455 410.605 204.22 410.84C203.986 411.064 203.868 411.341 203.868 411.672C203.868 412.024 203.986 412.307 204.22 412.52C204.455 412.733 204.743 412.84 205.084 412.84ZM206.604 406.792C207.287 406.792 207.794 406.643 208.124 406.344C208.455 406.045 208.62 405.635 208.62 405.112C208.62 404.6 208.455 404.195 208.124 403.896C207.794 403.597 207.287 403.448 206.604 403.448C205.922 403.448 205.41 403.597 205.068 403.896C204.738 404.195 204.572 404.6 204.572 405.112C204.572 405.443 204.647 405.736 204.796 405.992C204.946 406.248 205.17 406.445 205.468 406.584C205.767 406.723 206.146 406.792 206.604 406.792ZM212.151 411V402.584H213.287L213.415 403.848H213.527C213.751 403.507 214.002 403.229 214.279 403.016C214.567 402.803 214.882 402.648 215.223 402.552C215.575 402.445 215.948 402.392 216.343 402.392C216.876 402.392 217.34 402.483 217.735 402.664C218.14 402.845 218.455 403.139 218.679 403.544C218.914 403.949 219.031 404.499 219.031 405.192V411H217.623V405.384C217.623 405.032 217.575 404.744 217.479 404.52C217.394 404.296 217.271 404.12 217.111 403.992C216.962 403.864 216.775 403.773 216.551 403.72C216.338 403.667 216.098 403.64 215.831 403.64C215.436 403.64 215.063 403.736 214.711 403.928C214.359 404.12 214.076 404.397 213.863 404.76C213.66 405.123 213.559 405.555 213.559 406.056V411H212.151ZM227.374 411.192C226.681 411.192 226.084 411.037 225.582 410.728C225.092 410.419 224.708 409.939 224.43 409.288C224.164 408.627 224.03 407.773 224.03 406.728C224.03 405.736 224.169 404.92 224.446 404.28C224.724 403.64 225.108 403.165 225.598 402.856C226.089 402.547 226.66 402.392 227.31 402.392C227.684 402.392 228.03 402.435 228.35 402.52C228.67 402.605 228.953 402.739 229.198 402.92C229.454 403.101 229.678 403.341 229.87 403.64H229.966V399.432H231.374V411H230.238L230.11 409.8H229.998C229.71 410.269 229.337 410.621 228.878 410.856C228.42 411.08 227.918 411.192 227.374 411.192ZM227.71 409.96C228.244 409.96 228.676 409.843 229.006 409.608C229.337 409.373 229.577 409.032 229.726 408.584C229.886 408.136 229.966 407.581 229.966 406.92V406.664C229.966 406.088 229.908 405.603 229.79 405.208C229.673 404.813 229.513 404.499 229.31 404.264C229.108 404.029 228.873 403.864 228.606 403.768C228.34 403.672 228.057 403.624 227.758 403.624C227.236 403.624 226.809 403.731 226.478 403.944C226.148 404.147 225.902 404.472 225.742 404.92C225.582 405.357 225.502 405.928 225.502 406.632V406.968C225.502 407.693 225.588 408.28 225.758 408.728C225.929 409.165 226.174 409.48 226.494 409.672C226.825 409.864 227.23 409.96 227.71 409.96ZM233.588 401V399.432H234.996V401H233.588ZM233.588 411V402.584H234.996V411H233.588ZM238.606 413.912C238.201 413.912 237.827 413.827 237.486 413.656C237.145 413.496 236.873 413.261 236.67 412.952C236.467 412.643 236.366 412.275 236.366 411.848C236.366 411.379 236.494 410.989 236.75 410.68C237.017 410.371 237.331 410.141 237.694 409.992C237.427 409.864 237.219 409.688 237.07 409.464C236.921 409.229 236.846 408.973 236.846 408.696C236.846 408.323 236.979 408.008 237.246 407.752C237.523 407.496 237.859 407.325 238.254 407.24C237.891 407.005 237.603 406.707 237.39 406.344C237.187 405.971 237.086 405.56 237.086 405.112C237.086 404.579 237.209 404.109 237.454 403.704C237.71 403.299 238.094 402.979 238.606 402.744C239.129 402.509 239.763 402.392 240.51 402.392C240.851 402.392 241.171 402.419 241.47 402.472C241.769 402.515 242.035 402.589 242.27 402.696C242.643 402.525 242.921 402.307 243.102 402.04C243.294 401.773 243.411 401.501 243.454 401.224H244.846C244.846 401.544 244.771 401.848 244.622 402.136C244.483 402.413 244.291 402.648 244.046 402.84C243.801 403.021 243.502 403.144 243.15 403.208C243.417 403.464 243.614 403.752 243.742 404.072C243.881 404.392 243.95 404.739 243.95 405.112C243.95 405.645 243.822 406.12 243.566 406.536C243.321 406.941 242.947 407.261 242.446 407.496C241.945 407.731 241.315 407.848 240.558 407.848H239.246C238.958 407.848 238.723 407.907 238.542 408.024C238.361 408.131 238.27 408.307 238.27 408.552C238.27 408.765 238.361 408.941 238.542 409.08C238.723 409.208 238.958 409.272 239.246 409.272H242.67C243.289 409.272 243.795 409.48 244.19 409.896C244.585 410.301 244.782 410.824 244.782 411.464C244.782 411.923 244.665 412.333 244.43 412.696C244.206 413.069 243.886 413.363 243.47 413.576C243.065 413.8 242.59 413.912 242.046 413.912H238.606ZM239.006 412.84H242.03C242.275 412.84 242.499 412.787 242.702 412.68C242.905 412.584 243.065 412.445 243.182 412.264C243.299 412.083 243.358 411.885 243.358 411.672C243.358 411.309 243.251 411.021 243.038 410.808C242.825 410.595 242.558 410.488 242.238 410.488H239.006C238.665 410.488 238.377 410.605 238.142 410.84C237.907 411.064 237.79 411.341 237.79 411.672C237.79 412.024 237.907 412.307 238.142 412.52C238.377 412.733 238.665 412.84 239.006 412.84ZM240.526 406.792C241.209 406.792 241.715 406.643 242.046 406.344C242.377 406.045 242.542 405.635 242.542 405.112C242.542 404.6 242.377 404.195 242.046 403.896C241.715 403.597 241.209 403.448 240.526 403.448C239.843 403.448 239.331 403.597 238.99 403.896C238.659 404.195 238.494 404.6 238.494 405.112C238.494 405.443 238.569 405.736 238.718 405.992C238.867 406.248 239.091 406.445 239.39 406.584C239.689 406.723 240.067 406.792 240.526 406.792ZM246.073 401V399.432H247.481V401H246.073ZM246.073 411V402.584H247.481V411H246.073ZM251.635 411.192C251.197 411.192 250.856 411.112 250.611 410.952C250.365 410.781 250.189 410.563 250.083 410.296C249.976 410.019 249.923 409.725 249.923 409.416V403.768H248.835V402.584H249.955L250.211 400.232H251.331V402.584H252.915V403.768H251.331V409.208C251.331 409.475 251.379 409.677 251.475 409.816C251.571 409.944 251.752 410.008 252.019 410.008H252.915V410.936C252.808 410.989 252.68 411.032 252.531 411.064C252.381 411.096 252.227 411.123 252.067 411.144C251.917 411.176 251.773 411.192 251.635 411.192ZM256.529 411.192C256.219 411.192 255.91 411.155 255.601 411.08C255.291 411.005 255.003 410.883 254.737 410.712C254.47 410.541 254.257 410.307 254.097 410.008C253.937 409.699 253.857 409.315 253.857 408.856C253.857 408.28 253.995 407.805 254.273 407.432C254.55 407.059 254.934 406.771 255.424 406.568C255.926 406.355 256.518 406.211 257.201 406.136C257.883 406.051 258.625 406.008 259.425 406.008V405.048C259.425 404.739 259.371 404.472 259.265 404.248C259.158 404.024 258.966 403.853 258.689 403.736C258.422 403.608 258.038 403.544 257.536 403.544C257.057 403.544 256.673 403.608 256.385 403.736C256.107 403.853 255.91 404.008 255.793 404.2C255.686 404.392 255.633 404.605 255.633 404.84V405.08H254.273C254.262 405.027 254.257 404.973 254.257 404.92C254.257 404.867 254.257 404.803 254.257 404.728C254.257 404.216 254.395 403.789 254.673 403.448C254.961 403.096 255.361 402.835 255.873 402.664C256.385 402.483 256.971 402.392 257.633 402.392C258.337 402.392 258.923 402.493 259.393 402.696C259.873 402.899 260.23 403.187 260.465 403.56C260.71 403.933 260.833 404.381 260.833 404.904V409.464C260.833 409.667 260.881 409.811 260.977 409.896C261.073 409.971 261.19 410.008 261.329 410.008H261.953V410.936C261.803 411 261.638 411.053 261.457 411.096C261.275 411.149 261.067 411.176 260.833 411.176C260.555 411.176 260.326 411.117 260.145 411C259.963 410.893 259.825 410.744 259.729 410.552C259.633 410.349 259.569 410.125 259.537 409.88H259.425C259.233 410.147 258.987 410.381 258.689 410.584C258.401 410.776 258.075 410.925 257.713 411.032C257.35 411.139 256.955 411.192 256.529 411.192ZM256.881 410.008C257.222 410.008 257.542 409.955 257.841 409.848C258.15 409.741 258.422 409.592 258.657 409.4C258.891 409.197 259.078 408.957 259.217 408.68C259.355 408.403 259.425 408.099 259.425 407.768V407.064C258.561 407.064 257.825 407.112 257.217 407.208C256.609 407.304 256.139 407.475 255.809 407.72C255.489 407.965 255.329 408.312 255.329 408.76C255.329 409.048 255.393 409.283 255.521 409.464C255.649 409.645 255.83 409.784 256.065 409.88C256.299 409.965 256.571 410.008 256.881 410.008ZM263.135 411V399.432H264.543V411H263.135ZM273.433 411.192C272.601 411.192 271.897 411.037 271.321 410.728C270.755 410.408 270.323 409.923 270.025 409.272C269.737 408.621 269.593 407.795 269.593 406.792C269.593 405.779 269.737 404.952 270.025 404.312C270.323 403.661 270.761 403.181 271.337 402.872C271.913 402.552 272.633 402.392 273.497 402.392C274.286 402.392 274.947 402.547 275.481 402.856C276.014 403.155 276.414 403.608 276.681 404.216C276.958 404.813 277.097 405.565 277.097 406.472V407.144H271.049C271.07 407.816 271.166 408.371 271.337 408.808C271.518 409.235 271.785 409.549 272.137 409.752C272.489 409.944 272.931 410.04 273.465 410.04C273.827 410.04 274.142 409.997 274.409 409.912C274.686 409.816 274.915 409.683 275.097 409.512C275.289 409.341 275.433 409.139 275.529 408.904C275.625 408.669 275.678 408.413 275.689 408.136H277.065C277.054 408.584 276.969 409 276.809 409.384C276.649 409.757 276.414 410.077 276.105 410.344C275.795 410.611 275.417 410.819 274.969 410.968C274.521 411.117 274.009 411.192 273.433 411.192ZM271.081 406.088H275.641C275.641 405.619 275.587 405.224 275.481 404.904C275.374 404.584 275.219 404.323 275.017 404.12C274.825 403.917 274.595 403.773 274.329 403.688C274.073 403.592 273.779 403.544 273.449 403.544C272.958 403.544 272.542 403.635 272.201 403.816C271.859 403.997 271.598 404.275 271.417 404.648C271.235 405.021 271.123 405.501 271.081 406.088ZM278.838 411V402.584H279.974L280.102 403.848H280.214C280.438 403.507 280.689 403.229 280.966 403.016C281.254 402.803 281.569 402.648 281.91 402.552C282.262 402.445 282.636 402.392 283.03 402.392C283.564 402.392 284.028 402.483 284.422 402.664C284.828 402.845 285.142 403.139 285.366 403.544C285.601 403.949 285.718 404.499 285.718 405.192V411H284.31V405.384C284.31 405.032 284.262 404.744 284.166 404.52C284.081 404.296 283.958 404.12 283.798 403.992C283.649 403.864 283.462 403.773 283.238 403.72C283.025 403.667 282.785 403.64 282.518 403.64C282.124 403.64 281.75 403.736 281.398 403.928C281.046 404.12 280.764 404.397 280.55 404.76C280.348 405.123 280.246 405.555 280.246 406.056V411H278.838ZM289.822 411.192C289.385 411.192 289.043 411.112 288.798 410.952C288.553 410.781 288.377 410.563 288.27 410.296C288.163 410.019 288.11 409.725 288.11 409.416V403.768H287.022V402.584H288.142L288.398 400.232H289.518V402.584H291.102V403.768H289.518V409.208C289.518 409.475 289.566 409.677 289.662 409.816C289.758 409.944 289.939 410.008 290.206 410.008H291.102V410.936C290.995 410.989 290.867 411.032 290.718 411.064C290.569 411.096 290.414 411.123 290.254 411.144C290.105 411.176 289.961 411.192 289.822 411.192ZM292.604 401V399.432H294.012V401H292.604ZM292.604 411V402.584H294.012V411H292.604ZM298.166 411.192C297.728 411.192 297.387 411.112 297.142 410.952C296.896 410.781 296.72 410.563 296.614 410.296C296.507 410.019 296.454 409.725 296.454 409.416V403.768H295.366V402.584H296.486L296.742 400.232H297.862V402.584H299.446V403.768H297.862V409.208C297.862 409.475 297.91 409.677 298.006 409.816C298.102 409.944 298.283 410.008 298.55 410.008H299.446V410.936C299.339 410.989 299.211 411.032 299.062 411.064C298.912 411.096 298.758 411.123 298.598 411.144C298.448 411.176 298.304 411.192 298.166 411.192ZM301.668 413.912C301.412 413.912 301.188 413.891 300.996 413.848C300.814 413.816 300.692 413.795 300.628 413.784V412.76H301.332C301.588 412.76 301.838 412.707 302.084 412.6C302.329 412.493 302.558 412.312 302.772 412.056C302.985 411.8 303.166 411.448 303.316 411L300.052 402.584H301.524L303.204 406.92C303.278 407.123 303.364 407.373 303.46 407.672C303.566 407.96 303.668 408.259 303.764 408.568C303.87 408.877 303.956 409.149 304.02 409.384H304.116C304.158 409.213 304.212 409.021 304.276 408.808C304.34 408.595 304.404 408.376 304.468 408.152C304.542 407.917 304.612 407.699 304.676 407.496C304.75 407.283 304.809 407.096 304.852 406.936L306.276 402.584H307.7L304.852 410.76C304.692 411.219 304.516 411.64 304.324 412.024C304.132 412.419 303.918 412.755 303.684 413.032C303.449 413.309 303.166 413.523 302.836 413.672C302.505 413.832 302.116 413.912 301.668 413.912Z" fill="white"/>
</g>
<defs>
<clipPath id="clip0_179_22">
<rect width="393" height="852" fill="white"/>
</clipPath>
</defs>
</svg>
