<svg width="78" height="31" viewBox="0 0 78 31" fill="none" xmlns="http://www.w3.org/2000/svg">
<path d="M69.1283 0H8.87171C4.51759 0 0.988098 3.51944 0.988098 7.86115V23.1362C0.988098 27.4779 4.51759 30.9973 8.87171 30.9973H69.1256C73.4797 30.9973 77.0092 27.4779 77.0092 23.1362V7.86115C77.0092 3.51944 73.4797 0 69.1256 0H69.1283ZM20.6259 22.0327H17.956L15.4875 13.5823H15.3854L12.925 22.0327H10.255L6.54558 9.1093H9.53786L11.684 18.09H11.7915L14.1579 9.1093H16.7204L19.0815 18.1088H19.1943L21.3404 9.1093H24.3327L20.6233 22.0327H20.6259ZM34.8621 20.3667C34.435 20.9399 33.8441 21.3898 33.0947 21.7166C32.3426 22.0461 31.483 22.2094 30.5134 22.2094C29.5437 22.2094 28.7271 22.0461 27.9911 21.7193C27.2552 21.3925 26.675 20.9425 26.2506 20.3694C25.8262 19.7962 25.6086 19.1319 25.5952 18.3793H28.3538C28.3699 18.6954 28.4746 18.9712 28.668 19.2096C28.8588 19.448 29.1166 19.6301 29.4363 19.7614C29.7559 19.8926 30.1185 19.9569 30.5187 19.9569C30.919 19.9569 31.3058 19.8846 31.6254 19.7373C31.945 19.5899 32.1975 19.3864 32.3775 19.1239C32.5602 18.8641 32.6488 18.5614 32.6488 18.2213C32.6488 17.8811 32.5521 17.5704 32.3614 17.3026C32.1707 17.0347 31.894 16.8258 31.5394 16.6758C31.1822 16.5232 30.7605 16.4482 30.2716 16.4482H29.0629V14.442H30.2716C30.6853 14.442 31.0506 14.3697 31.3702 14.2278C31.6899 14.0858 31.937 13.8849 32.1143 13.6305C32.2915 13.376 32.3802 13.0787 32.3802 12.7386C32.3802 12.3984 32.3023 12.1306 32.1492 11.8841C31.9961 11.6377 31.7812 11.4449 31.5045 11.3056C31.2279 11.1663 30.9055 11.0967 30.5402 11.0967C30.1749 11.0967 29.8284 11.1636 29.5222 11.2949C29.2133 11.4261 28.9662 11.6163 28.7809 11.86C28.5955 12.1038 28.4961 12.3904 28.4827 12.7171H25.8557C25.8692 11.9725 26.0814 11.3163 26.495 10.7485C26.9087 10.1807 27.4674 9.73605 28.1684 9.41464C28.8722 9.09323 29.6646 8.93252 30.551 8.93252C31.4374 8.93252 32.2271 9.09323 32.8986 9.41732C33.5701 9.7414 34.0912 10.178 34.4646 10.7271C34.8379 11.2761 35.0233 11.8922 35.0179 12.5725C35.0233 13.2957 34.7976 13.901 34.3437 14.3831C33.8898 14.8679 33.3015 15.1732 32.5763 15.3045V15.4063C33.5298 15.5295 34.2577 15.8562 34.7574 16.3946C35.257 16.9303 35.5041 17.5999 35.5014 18.4034C35.5068 19.14 35.2946 19.7935 34.8648 20.3667H34.8621ZM75.411 21.888C75.411 26.136 71.9567 29.5831 67.6939 29.5831H48.6121C44.3493 29.5831 40.895 26.1387 40.895 21.888V9.11198C40.895 4.86401 44.3493 1.41688 48.6121 1.41688H67.6939C71.9567 1.41688 75.411 4.86133 75.411 9.11198V21.888Z" fill="white"/>
<path d="M55.0211 10.0601C54.081 9.54588 52.9582 9.28607 51.6554 9.28607H47.022V22.2094H51.6151C52.9313 22.2094 54.0622 21.9496 55.0103 21.4327C55.9585 20.9158 56.6864 20.1738 57.1941 19.2043C57.7018 18.2373 57.957 17.0803 57.957 15.733C57.957 14.3858 57.7018 13.2394 57.1941 12.2752C56.6864 11.311 55.9612 10.5717 55.0211 10.0575V10.0601ZM54.8035 18.0927C54.5242 18.7007 54.1051 19.148 53.5491 19.4373C52.9931 19.7265 52.3108 19.8685 51.5023 19.8685H49.7618V11.627H51.5077C52.3189 11.627 52.9985 11.769 53.5518 12.0556C54.1051 12.3421 54.5215 12.7868 54.8008 13.3921C55.0802 13.9974 55.2225 14.7795 55.2225 15.733C55.2225 16.6865 55.0829 17.482 54.8008 18.09L54.8035 18.0927Z" fill="white"/>
<path d="M68.7174 16.0009C68.3708 15.6929 67.9626 15.4357 67.4898 15.2241C67.0171 15.0125 66.4987 14.8465 65.9319 14.7179L64.7688 14.4394C64.4868 14.3751 64.2209 14.3001 63.9711 14.209C63.7213 14.1179 63.5037 14.0108 63.313 13.8876C63.1223 13.7644 62.9745 13.6144 62.8671 13.443C62.7597 13.2716 62.7086 13.068 62.7194 12.8377C62.7194 12.5591 62.7999 12.3127 62.9638 12.0931C63.125 11.8734 63.3613 11.702 63.6702 11.5788C63.9791 11.4556 64.3552 11.3913 64.8038 11.3913C65.4618 11.3913 65.9829 11.5333 66.367 11.8145C66.7511 12.0957 66.9687 12.4921 67.0198 13.001H69.6467C69.6333 12.2323 69.4265 11.5547 69.0263 10.9681C68.626 10.3842 68.0646 9.92622 67.3448 9.59946C66.6249 9.27269 65.7842 9.10663 64.8226 9.10663C63.8609 9.10663 63.0336 9.27001 62.2923 9.59946C61.5509 9.9289 60.9654 10.3842 60.5436 10.9681C60.1192 11.552 59.9097 12.2377 59.9151 13.0198C59.9097 13.976 60.224 14.734 60.8579 15.2991C61.4918 15.8616 62.3541 16.2768 63.4473 16.5419L64.8575 16.8955C65.3302 17.008 65.7304 17.1365 66.0555 17.2731C66.3832 17.4124 66.6303 17.5811 66.8022 17.7767C66.9741 17.9749 67.06 18.2186 67.06 18.5079C67.06 18.8186 66.966 19.0944 66.7753 19.3355C66.5846 19.5766 66.3187 19.7614 65.9749 19.898C65.6311 20.0319 65.2281 20.0989 64.7635 20.0989C64.2988 20.0989 63.869 20.0265 63.4956 19.8819C63.1223 19.7373 62.8241 19.5203 62.6039 19.231C62.3836 18.9418 62.2574 18.5829 62.2278 18.149H59.5767C59.5981 19.0784 59.8238 19.8578 60.2562 20.4872C60.6887 21.1167 61.2931 21.5907 62.0666 21.9095C62.8402 22.2282 63.7508 22.3889 64.7984 22.3889C65.8459 22.3889 66.7538 22.2309 67.5033 21.9121C68.2527 21.5934 68.8248 21.1461 69.225 20.5676C69.6252 19.989 69.824 19.3034 69.8294 18.5132C69.824 17.9749 69.7273 17.4981 69.5339 17.0803C69.3432 16.6651 69.0719 16.3009 68.7281 15.9955L68.7174 16.0009Z" fill="white"/>
</svg>
