<svg width="90" height="44" viewBox="0 0 90 44" fill="none" xmlns="http://www.w3.org/2000/svg">
<path d="M0 21.9888C0 9.84477 9.88819 0.00012207 22.0859 0.00012207H67.9141C80.1118 0.00012207 90 9.84477 90 21.9888C90 34.1327 80.1118 43.9774 67.9141 43.9774H22.0859C9.88819 43.9774 0 34.1327 0 21.9888Z" fill="white"/>
<path d="M46.3799 21.9886C46.3799 11.9699 54.414 3.84802 64.3247 3.84802H68.1897C78.1003 3.84802 86.1345 11.9699 86.1345 21.9886C86.1345 32.0074 78.1003 40.1293 68.1897 40.1293H64.3247C54.414 40.1293 46.3799 32.0074 46.3799 21.9886Z" fill="#8968FF"/>
<path d="M35.0483 29.1612C34.0007 29.1612 33.0718 28.9829 32.2615 28.6263C31.4557 28.2653 30.82 27.7683 30.3544 27.1354C29.8888 26.5025 29.6515 25.7738 29.6426 24.9492H32.9868C33.0002 25.2479 33.0964 25.5131 33.2755 25.7448C33.4546 25.9721 33.6986 26.1504 34.0075 26.2797C34.3164 26.4089 34.6678 26.4736 35.0617 26.4736C35.4557 26.4736 35.8027 26.4045 36.1026 26.2663C36.407 26.1237 36.6443 25.9298 36.8144 25.6847C36.9845 25.4351 37.0674 25.1498 37.0629 24.8289C37.0674 24.508 36.9756 24.2227 36.7876 23.9731C36.5995 23.7235 36.3332 23.5296 35.9884 23.3915C35.6482 23.2533 35.2453 23.1842 34.7797 23.1842H33.4434V20.8309H34.7797C35.1871 20.8309 35.5452 20.764 35.8541 20.6303C36.1675 20.4966 36.4115 20.3094 36.5861 20.0687C36.7607 19.8236 36.8458 19.5428 36.8413 19.2263C36.8458 18.9188 36.7719 18.6491 36.6197 18.4174C36.4719 18.1811 36.2638 17.9984 35.9952 17.8691C35.731 17.7399 35.4244 17.6753 35.0752 17.6753C34.7081 17.6753 34.3746 17.7399 34.0746 17.8691C33.7791 17.9984 33.5441 18.1811 33.3695 18.4174C33.1949 18.6536 33.1031 18.9277 33.0942 19.2397H29.9179C29.9269 18.4241 30.1552 17.7065 30.6029 17.0869C31.0505 16.4629 31.6594 15.9749 32.4294 15.6228C33.2039 15.2707 34.0858 15.0946 35.0752 15.0946C36.0601 15.0946 36.9263 15.2662 37.674 15.6094C38.4216 15.9526 39.0036 16.4206 39.4199 17.0134C39.8363 17.6017 40.0444 18.2681 40.0444 19.0124C40.0489 19.7835 39.796 20.4186 39.2856 20.9178C38.7797 21.417 38.1284 21.7245 37.3315 21.8404V21.9474C38.397 22.0722 39.2006 22.4154 39.7422 22.977C40.2884 23.5386 40.5593 24.2406 40.5548 25.0829C40.5548 25.8763 40.3198 26.5805 39.8497 27.1956C39.3841 27.8062 38.735 28.2876 37.9023 28.6397C37.0741 28.9874 36.1227 29.1612 35.0483 29.1612Z" fill="#8968FF"/>
<path d="M13.389 28.9742L9.38672 15.282H13.0599L15.1349 24.2541H15.2491L17.6196 15.282H20.6145L22.985 24.2742H23.0992L25.1809 15.282H28.8474L24.8518 28.9742H21.6487L19.1708 20.6706H19.0633L16.5854 28.9742H13.389Z" fill="#8968FF"/>
<path d="M75.5024 19.517C75.4487 18.9777 75.2182 18.5587 74.8108 18.2601C74.4034 17.9615 73.8505 17.8122 73.1521 17.8122C72.6776 17.8122 72.2769 17.879 71.9501 18.0127C71.6233 18.142 71.3726 18.3225 71.198 18.5543C71.0279 18.786 70.9428 19.049 70.9428 19.3432C70.9339 19.5883 70.9853 19.8023 71.0973 19.985C71.2137 20.1677 71.3726 20.326 71.574 20.4597C71.7755 20.5889 72.0083 20.7026 72.2724 20.8006C72.5365 20.8942 72.8186 20.9745 73.1185 21.0413L74.3541 21.3355C74.954 21.4692 75.5047 21.6475 76.0061 21.8703C76.5075 22.0932 76.9417 22.3673 77.3088 22.6927C77.6759 23.018 77.9602 23.4014 78.1617 23.8426C78.3676 24.2839 78.4728 24.7897 78.4773 25.3603C78.4728 26.1982 78.2579 26.9247 77.8326 27.5398C77.4118 28.1504 76.8029 28.6251 76.0061 28.9638C75.2137 29.2981 74.2579 29.4652 73.1387 29.4652C72.0284 29.4652 71.0614 29.2959 70.2377 28.9571C69.4185 28.6184 68.7783 28.117 68.3172 27.4529C67.8605 26.7843 67.621 25.9575 67.5986 24.9725H70.4123C70.4436 25.4316 70.5757 25.8149 70.8085 26.1224C71.0458 26.4255 71.3614 26.655 71.7553 26.811C72.1538 26.9626 72.6037 27.0383 73.1051 27.0383C73.5975 27.0383 74.0251 26.967 74.3877 26.8244C74.7548 26.6818 75.0391 26.4834 75.2405 26.2294C75.442 25.9753 75.5427 25.6834 75.5427 25.3536C75.5427 25.046 75.4509 24.7875 75.2674 24.578C75.0883 24.3685 74.8242 24.1903 74.475 24.0432C74.1303 23.8961 73.7072 23.7624 73.2058 23.642L71.7083 23.2676C70.5488 22.9869 69.6333 22.5478 68.9618 21.9506C68.2903 21.3533 67.9568 20.5488 67.9613 19.5371C67.9568 18.708 68.1784 17.9838 68.6261 17.3642C69.0782 16.7447 69.6983 16.2611 70.4862 15.9134C71.2741 15.5658 72.1694 15.392 73.1723 15.392C74.193 15.392 75.0838 15.5658 75.8449 15.9134C76.6104 16.2611 77.2059 16.7447 77.6311 17.3642C78.0564 17.9838 78.2758 18.7014 78.2892 19.517H75.5024Z" fill="white"/>
<path d="M59.5373 29.2715H54.6621V15.5793H59.5776C60.961 15.5793 62.1518 15.8535 63.1501 16.4017C64.1485 16.9454 64.9162 17.7277 65.4534 18.7483C65.9951 19.769 66.266 20.9903 66.266 22.4121C66.266 23.8383 65.9951 25.064 65.4534 26.0892C64.9162 27.1143 64.144 27.901 63.1367 28.4492C62.1339 28.9974 60.9341 29.2715 59.5373 29.2715ZM57.5698 26.7912H59.4165C60.276 26.7912 60.999 26.6396 61.5855 26.3365C62.1764 26.029 62.6196 25.5543 62.9151 24.9125C63.215 24.2662 63.365 23.4327 63.365 22.4121C63.365 21.4003 63.215 20.5735 62.9151 19.9317C62.6196 19.2899 62.1787 18.8174 61.5922 18.5143C61.0057 18.2113 60.2827 18.0597 59.4232 18.0597H57.5698V26.7912Z" fill="white"/>
</svg>
